<?xml version="1.0" encoding="utf-8"?>
<!-- Generator: Adobe Illustrator 25.3.0, SVG Export Plug-In . SVG Version: 6.00 Build 0)  -->
<svg version="1.1" id="Capa_1" xmlns="http://www.w3.org/2000/svg" xmlns:xlink="http://www.w3.org/1999/xlink" x="0px" y="0px"
	 viewBox="0 0 420.94 420.94" style="enable-background:new 0 0 420.94 420.94;" xml:space="preserve">
<style type="text/css">
	.st0{fill:#CBC2DE;}
	.st1{fill:none;stroke:#F2F2F2;stroke-width:14.1614;stroke-miterlimit:10;}
	.st2{fill:none;stroke:#F2F2F2;stroke-width:12.2829;stroke-linecap:round;stroke-linejoin:round;stroke-miterlimit:10;}
	.st3{fill:#E5EFEE;}
	.st4{fill:#E4EEEE;}
	.st5{fill:#E6EFEE;}
	.st6{fill:#E7F0EF;}
	.st7{fill:#DEEBEB;}
	.st8{fill:none;stroke:#F2F2F2;stroke-width:13.0789;stroke-miterlimit:10;}
	.st9{fill:#F2F2F2;}
	.st10{fill:none;stroke:#F2F2F2;stroke-width:13.0789;stroke-linecap:round;stroke-miterlimit:10;}
	.st11{fill:none;stroke:#F2F2F2;stroke-width:13.4939;stroke-miterlimit:10;}
	.st12{fill:none;stroke:#F2F2F2;stroke-width:6.6361;stroke-linecap:round;stroke-miterlimit:10;}
</style>
<g>
	<path class="st0" d="M210.38,414.4C98.48,414.82,4.71,323.28,6.55,207.22c0.88-55.49,21.44-103.28,61.15-142.26
		c39.65-38.93,87.79-58.52,143.19-58.42c56.97,0.1,106.11,20.89,145.83,61.77c38.84,39.98,58.03,88.45,57.71,144.32
		C413.79,323.12,323.07,414.86,210.38,414.4z"/>
	<path class="st1" d="M304.04,282.69c-1.41,4.05-3.39,7.76-6.11,11.1c-4.94,6.05-11.32,9.66-18.84,11.41
		c-6.21,1.44-12.41,1.01-18.63-0.09c-7.48-1.32-13.9,0.21-18.8,6.63c-4.32,5.65-8.8,11.16-14.92,15.16
		c-12.23,7.98-27.57,7.52-39.2-1.39c-4.61-3.54-8.52-7.71-11.82-12.47c-4.06-5.85-9.44-9.29-16.78-8.57
		c-4.93,0.48-9.81,1.44-14.81,1.19c-17.65-0.88-31.04-10.83-34.22-29.17c-1-5.74-0.4-11.45,0.53-17.16
		c1.11-6.82-0.3-12.76-5.94-17.44c-3.2-2.66-6.63-5.06-9.57-8.07c-7.98-8.14-12.26-17.74-11.47-29.22
		c0.47-6.97,3.09-13.25,7.34-18.84c3.58-4.71,8.18-8.3,12.86-11.78c6.29-4.67,8.03-10.95,6.8-18.34c-1.38-8.32-1.8-16.55,1.28-24.66
		c3.39-8.94,9.76-14.77,18.53-18.17c7.72-2.99,12.49-4.03,20.67-3.78c1.29,0.04,5.81,0.81,7.01,1.33c4.69,2.03,8.8,1.11,12.46-2.44
		c2.81-2.73,5.06-5.89,7.43-8.97c6.16-8.01,13.71-13.84,23.93-15.78c9.35-1.77,17.63,0.74,25.34,5.83
		c5.38,3.56,9.2,8.64,13.12,13.63c3.55,4.52,8.09,7.12,14.06,7.17c5.7,0.05,11.37-0.86,17.07-0.48c7.5,0.5,14.66,2.2,20.9,6.67
		c6.9,4.94,10.81,11.83,12.59,20c1.37,6.27,1.39,12.63,0.3,18.89c-1.49,8.6,1.1,15.26,8.25,20.23c6.11,4.25,11.22,9.47,14.91,15.97
		c2.36,4.16,3.88,8.63,4.33,13.45c1.08,11.76-3.73,21.08-11.85,29.08"/>
	<path class="st2" d="M297.1,270.28c2.48,4.19,6.93,11.76,9.42,15.94c5.27,8.84,10.52,17.69,15.81,26.53
		c1.83,3.05,3.7,6.07,5.58,9.1c0.21,0.35,0.41,0.93,0.93,0.75c0.49-0.17,0.34-0.72,0.34-1.16c0.01-1.8-0.02-3.6,0.07-5.4
		c0.45-9.69,0.09-19.37-0.33-29.05c-0.27-6.28-0.9-12.54-1.43-18.8c-0.09-1.06,0.14-1.66,1.23-1.91c3.63-0.84,15.74-4.26,19.37-5.11
		l33.98-10.55l-8.64-3.51c-6.09-1.35-11.03-3.09-17.11-4.48c-14.35-3.27-40.14-9-54.47-12.36"/>
	<path class="st2" d="M302.78,230.45c-5.17-1.18-10.34-2.37-15.51-3.55c-6.06-1.38-12.11-2.75-18.52-4.21
		c3.1,5.18,6.02,10.03,8.92,14.89c6.43,10.78,12.85,21.55,19.26,32.34"/>
	<path class="st0" d="M261.43,209.84c0.45,27.41-23.62,52.18-52.35,51.64c-26.96-0.51-49.59-22.77-49.57-51.85
		c0.02-28.28,22.01-50.44,51.61-50.17C238.57,159.71,261.9,182.19,261.43,209.84z"/>
	<path class="st1" d="M207.84,168.68c20.98-0.48,38.72,17.51,38.56,39.56c-0.15,21.26-17.42,37.91-39.05,37.92
		c-21.57,0.01-39.12-17.83-38.62-39.54C169.2,186.4,186.78,168.35,207.84,168.68z"/>
</g>
</svg>
