<?xml version="1.0" encoding="utf-8"?>
<!-- Generator: Adobe Illustrator 25.3.0, SVG Export Plug-In . SVG Version: 6.00 Build 0)  -->
<svg version="1.1" id="Capa_1" xmlns="http://www.w3.org/2000/svg" xmlns:xlink="http://www.w3.org/1999/xlink" x="0px" y="0px"
	 viewBox="0 0 420.94 420.94" style="enable-background:new 0 0 420.94 420.94;" xml:space="preserve">
<style type="text/css">
	.st0{fill:#CBC2DE;}
	.st1{fill:none;stroke:#F2F2F2;stroke-width:14.1614;stroke-miterlimit:10;}
	.st2{fill:none;stroke:#F2F2F2;stroke-width:12.2829;stroke-linecap:round;stroke-linejoin:round;stroke-miterlimit:10;}
	.st3{fill:#E5EFEE;}
	.st4{fill:#E4EEEE;}
	.st5{fill:#E6EFEE;}
	.st6{fill:#E7F0EF;}
	.st7{fill:#DEEBEB;}
	.st8{fill:none;stroke:#F2F2F2;stroke-width:13.0789;stroke-miterlimit:10;}
	.st9{fill:#F2F2F2;}
	.st10{fill:none;stroke:#F2F2F2;stroke-width:13.0789;stroke-linecap:round;stroke-miterlimit:10;}
	.st11{fill:none;stroke:#F2F2F2;stroke-width:13.4939;stroke-miterlimit:10;}
	.st12{fill:none;stroke:#F2F2F2;stroke-width:6.6361;stroke-linecap:round;stroke-miterlimit:10;}
</style>
<g>
	<g>
		<path class="st0" d="M217.55,5.51c13.14,0.24,26.08,2.09,38.87,4.96c18.19,4.07,35.43,10.71,51.81,19.56
			c10.86,5.86,21.02,12.79,30.71,20.44c8.17,6.45,15.6,13.7,22.72,21.25c5.9,6.25,11.19,13.05,16.19,20.07
			c6.47,9.07,12.19,18.6,17.05,28.6c7.77,15.99,13.51,32.68,16.84,50.18c1.54,8.12,2.74,16.26,3.28,24.51
			c0.14,2.08,0.27,4.15,0.35,6.24c0.48,0.9-0.14,1.95,0.37,2.84c0,4.32,0,8.63,0,12.95c-0.51,0.9,0.11,1.94-0.38,2.85
			c-0.3,11.45-1.9,22.74-4.24,33.93c-4.04,19.26-10.95,37.48-20.3,54.77c-5.94,10.98-12.91,21.29-20.76,31.02
			c-5.9,7.31-12.25,14.18-19.09,20.59c-7.17,6.72-14.8,12.9-22.87,18.54c-9.25,6.46-18.93,12.19-29.1,17.05
			c-15.75,7.51-32.18,13.01-49.35,16.25c-8.52,1.6-17.09,2.65-25.75,3.3c-7.76,0.58-15.53,0.58-23.25,0.23
			c-16.96-0.78-33.62-3.62-49.92-8.55c-12.96-3.92-25.39-9.1-37.29-15.48c-12.01-6.44-23.26-14.06-33.81-22.73
			c-7.32-6.01-14.13-12.55-20.53-19.48c-10.29-11.15-19.26-23.31-26.78-36.53c-7.03-12.34-12.87-25.2-17.24-38.71
			c-3.63-11.2-6.34-22.63-7.91-34.32c-0.8-5.93-1.61-11.84-1.61-17.84c-0.44-0.62,0.08-1.42-0.37-2.04c0-6.21,0-12.42,0-18.64
			c0.46-0.62-0.06-1.42,0.37-2.04c0.05-8.9,1.4-17.66,2.96-26.39c1.83-10.28,4.55-20.34,8.02-30.19
			c4.27-12.11,9.7-23.68,16.05-34.84c5.25-9.21,11.29-17.86,17.88-26.12c3.27-4.1,6.83-7.96,10.4-11.82
			c11.79-12.73,25.17-23.52,39.74-32.85c10.24-6.56,21.03-12.06,32.3-16.66c9.94-4.06,20.12-7.31,30.57-9.74
			c7.66-1.79,15.38-3.12,23.21-3.98c5.55-0.61,11.09-1.19,16.68-1.17c1.32-0.5,2.75,0.16,4.06-0.37c2.02,0,4.04,0,6.06,0
			C214.81,5.67,216.23,5.01,217.55,5.51z"/>
		<path class="st3" d="M207.43,5.14c-1.29,0.78-2.71,0.23-4.06,0.37C204.67,4.74,206.08,5.29,207.43,5.14z"/>
		<path class="st4" d="M217.55,5.51c-1.35-0.14-2.77,0.41-4.06-0.37C214.84,5.29,216.26,4.73,217.55,5.51z"/>
		<path class="st5" d="M415.75,204.15c-0.73-0.87-0.26-1.9-0.37-2.85C416.1,202.18,415.62,203.2,415.75,204.15z"/>
		<path class="st6" d="M415.37,219.95c0.12-0.95-0.35-1.98,0.38-2.85C415.62,218.05,416.1,219.08,415.37,219.95z"/>
		<path class="st7" d="M5.55,199.27c-0.06,0.69,0.26,1.45-0.37,2.04C5.25,200.62,4.93,199.86,5.55,199.27z"/>
		<path class="st7" d="M5.19,219.94c0.63,0.59,0.3,1.35,0.37,2.04C4.93,221.39,5.25,220.63,5.19,219.94z"/>
	</g>
	<g>
		<path class="st8" d="M262.38,341.62H158.56c-14.59,0-26.41-11.82-26.41-26.41V105.74c0-14.59,11.82-26.41,26.41-26.41h103.82
			c14.59,0,26.41,11.82,26.41,26.41V315.2C288.79,329.79,276.97,341.62,262.38,341.62z"/>
		<circle class="st9" cx="210.78" cy="311.87" r="14.28"/>
		<circle class="st9" cx="261.37" cy="101.59" r="4.96"/>
		<line class="st10" x1="190.59" y1="101.03" x2="230.66" y2="101.03"/>
	</g>
</g>
</svg>
