<svg xmlns="http://www.w3.org/2000/svg" viewBox="0 0 841.89 595.28"><defs><style>.cls-1{fill:#362286;}.cls-2{fill:#c3c0d5;}</style></defs><g id="Capa_1" data-name="Capa 1"><path class="cls-1" d="M276.39,380.74a6.08,6.08,0,0,1-2.28-.41,5.3,5.3,0,0,1-1.82-1.16,5.5,5.5,0,0,1-1.2-1.76,5.95,5.95,0,0,1,0-4.44,5.39,5.39,0,0,1,3-2.92,6.1,6.1,0,0,1,2.29-.41,6.26,6.26,0,0,1,2.32.42,4.83,4.83,0,0,1,1.81,1.27l-1,1a4.25,4.25,0,0,0-1.4-1,4.38,4.38,0,0,0-1.66-.31,4.55,4.55,0,0,0-1.7.31,3.83,3.83,0,0,0-1.35.87,3.76,3.76,0,0,0-.89,1.32,4.52,4.52,0,0,0,0,3.34,3.76,3.76,0,0,0,.89,1.32,4.13,4.13,0,0,0,1.35.87,4.55,4.55,0,0,0,1.7.31,4.2,4.2,0,0,0,1.66-.32,4,4,0,0,0,1.4-1l1,1a5,5,0,0,1-1.81,1.27A6.13,6.13,0,0,1,276.39,380.74Z"/><path class="cls-1" d="M286.35,380.71a4.82,4.82,0,0,1-2.32-.54,4,4,0,0,1-1.55-1.49,4.59,4.59,0,0,1,0-4.34,3.9,3.9,0,0,1,1.47-1.49,4.28,4.28,0,0,1,2.12-.53,4.18,4.18,0,0,1,2.11.53,3.64,3.64,0,0,1,1.43,1.48,4.52,4.52,0,0,1,.52,2.22,1.7,1.7,0,0,1,0,.22,1.64,1.64,0,0,1,0,.23h-7v-1.07h6.22l-.61.38a2.79,2.79,0,0,0-.33-1.42,2.55,2.55,0,0,0-.93-1,3,3,0,0,0-2.77,0,2.49,2.49,0,0,0-.95,1,3,3,0,0,0-.34,1.44v.25a2.86,2.86,0,0,0,.38,1.46,2.62,2.62,0,0,0,1.06,1,3.33,3.33,0,0,0,1.57.36,3.54,3.54,0,0,0,1.33-.25,3,3,0,0,0,1-.74l.82,1a3.64,3.64,0,0,1-1.38,1A4.82,4.82,0,0,1,286.35,380.71Z"/><path class="cls-1" d="M292.68,380.62V369.11h1.49v11.51Z"/><path class="cls-1" d="M298.25,370.82a1,1,0,0,1-.72-.28.94.94,0,0,1-.29-.69.91.91,0,0,1,.29-.69,1,1,0,0,1,.72-.28,1,1,0,0,1,.72.27.88.88,0,0,1,.29.67,1,1,0,0,1-.28.71A1,1,0,0,1,298.25,370.82Zm-.75,9.8V372.4H299v8.22Z"/><path class="cls-1" d="M304.73,380.71a3.81,3.81,0,0,1-1.6-.31,2.5,2.5,0,0,1-1.07-.86,2.24,2.24,0,0,1-.37-1.25,2.38,2.38,0,0,1,.32-1.21,2.23,2.23,0,0,1,1-.87,5,5,0,0,1,1.95-.32h2.6V377h-2.54a2.22,2.22,0,0,0-1.51.37,1.19,1.19,0,0,0-.38.9,1.16,1.16,0,0,0,.48,1,2.17,2.17,0,0,0,1.33.36,2.82,2.82,0,0,0,1.47-.37,2.13,2.13,0,0,0,.9-1.08l.3,1a2.31,2.31,0,0,1-1,1.15A3.68,3.68,0,0,1,304.73,380.71Zm2.7-.09v-1.74l-.08-.33v-3a1.89,1.89,0,0,0-.55-1.46,2.29,2.29,0,0,0-1.65-.52,4.38,4.38,0,0,0-1.43.24,3.65,3.65,0,0,0-1.17.64l-.63-1.12a4.6,4.6,0,0,1,1.53-.78,6.46,6.46,0,0,1,1.87-.27,3.77,3.77,0,0,1,2.61.82,3.21,3.21,0,0,1,.91,2.51v5Z"/><path class="cls-1" d="M276.44,399.35a6.39,6.39,0,0,1-2.3-.41,5.43,5.43,0,0,1-1.84-1.18,5.27,5.27,0,0,1-1.21-1.76,5.84,5.84,0,0,1,0-4.4,5.37,5.37,0,0,1,1.21-1.76,5.62,5.62,0,0,1,1.83-1.17,6.17,6.17,0,0,1,2.31-.42,6.3,6.3,0,0,1,2.29.41,5.44,5.44,0,0,1,1.83,1.16,5.37,5.37,0,0,1,1.21,1.76,5.78,5.78,0,0,1,.43,2.22,5.71,5.71,0,0,1-.43,2.22,5.37,5.37,0,0,1-1.21,1.76,5.44,5.44,0,0,1-1.83,1.16A6.1,6.1,0,0,1,276.44,399.35Zm0-1.38a4.35,4.35,0,0,0,1.67-.31,3.89,3.89,0,0,0,1.33-.87,4.2,4.2,0,0,0,.89-1.33,4.6,4.6,0,0,0,0-3.32,4.15,4.15,0,0,0-.89-1.32,3.91,3.91,0,0,0-1.33-.88,4.68,4.68,0,0,0-3.35,0,4.05,4.05,0,0,0-1.34.88,3.85,3.85,0,0,0-.89,1.32,4.47,4.47,0,0,0,0,3.32,3.89,3.89,0,0,0,.89,1.33,4,4,0,0,0,1.34.87A4.37,4.37,0,0,0,276.44,398Z"/><path class="cls-1" d="M284.85,399.23V391h1.43v2.23l-.14-.56a2.54,2.54,0,0,1,1.14-1.3,4,4,0,0,1,2-.45v1.44h-.34a2.57,2.57,0,0,0-1.9.71,2.88,2.88,0,0,0-.69,2.07v4.09Z"/><path class="cls-1" d="M294.91,399.32a4.31,4.31,0,0,1-2.13-.52,4,4,0,0,1-1.48-1.48,4.35,4.35,0,0,1-.54-2.2,4.28,4.28,0,0,1,.54-2.19,3.87,3.87,0,0,1,1.48-1.47,4.31,4.31,0,0,1,2.13-.53,3.8,3.8,0,0,1,1.88.47,3.33,3.33,0,0,1,1.34,1.39,4.81,4.81,0,0,1,.51,2.33,5.06,5.06,0,0,1-.49,2.33,3.4,3.4,0,0,1-1.33,1.4A3.76,3.76,0,0,1,294.91,399.32ZM295,398a2.75,2.75,0,0,0,1.4-.36,2.47,2.47,0,0,0,1-1,3,3,0,0,0,.37-1.53,3,3,0,0,0-.37-1.53,2.57,2.57,0,0,0-1-1,3,3,0,0,0-2.81,0,2.67,2.67,0,0,0-1,1,3.09,3.09,0,0,0-.37,1.53,3.15,3.15,0,0,0,.37,1.53,2.56,2.56,0,0,0,1,1A2.74,2.74,0,0,0,295,398Zm2.81,1.21V397l.09-1.91-.16-1.9v-5.48h1.49v11.51Z"/><path class="cls-1" d="M306.11,399.32a4.4,4.4,0,0,1-2.2-.54,4,4,0,0,1-1.52-1.5,4.47,4.47,0,0,1,0-4.33,3.93,3.93,0,0,1,1.52-1.48,4.4,4.4,0,0,1,2.2-.54,4.45,4.45,0,0,1,2.2.54,4,4,0,0,1,1.52,1.47,4.58,4.58,0,0,1,0,4.35,4,4,0,0,1-1.52,1.49A4.45,4.45,0,0,1,306.11,399.32Zm0-1.3a2.8,2.8,0,0,0,1.42-.36,2.47,2.47,0,0,0,1-1,3.26,3.26,0,0,0,.35-1.53,3.2,3.2,0,0,0-.35-1.53,2.57,2.57,0,0,0-1-1,2.8,2.8,0,0,0-1.42-.35,2.76,2.76,0,0,0-1.41.35,2.71,2.71,0,0,0-1,1,3,3,0,0,0-.37,1.53,3,3,0,0,0,.37,1.53,2.6,2.6,0,0,0,1,1A2.76,2.76,0,0,0,306.11,398Zm-1.18-8.2,2.11-2h1.9l-2.61,2Z"/><path class="cls-1" d="M317.33,390.93a3.85,3.85,0,0,1,1.77.39,2.79,2.79,0,0,1,1.2,1.18,4.11,4.11,0,0,1,.44,2v4.73h-1.49v-4.56a2.48,2.48,0,0,0-.58-1.8,2.19,2.19,0,0,0-1.64-.6,2.87,2.87,0,0,0-1.38.31,2.16,2.16,0,0,0-.91.91,3.25,3.25,0,0,0-.31,1.51v4.23h-1.49V391h1.42v2.22l-.23-.59a2.85,2.85,0,0,1,1.24-1.26A4.08,4.08,0,0,1,317.33,390.93Zm.6-1.16a1.29,1.29,0,0,1-.66-.16,2.68,2.68,0,0,1-.52-.36,4.88,4.88,0,0,0-.45-.37.75.75,0,0,0-.43-.15.65.65,0,0,0-.55.26,1.19,1.19,0,0,0-.24.7h-.84a2.29,2.29,0,0,1,.43-1.38,1.32,1.32,0,0,1,1.09-.51,1.35,1.35,0,0,1,.67.16,2.86,2.86,0,0,1,.52.37c.16.14.31.27.45.37a.72.72,0,0,0,.42.15.71.71,0,0,0,.56-.24,1.06,1.06,0,0,0,.23-.69h.84a2.11,2.11,0,0,1-.43,1.34A1.32,1.32,0,0,1,317.93,389.77Z"/><path class="cls-1" d="M327.66,399.32a4.79,4.79,0,0,1-2.32-.54,3.84,3.84,0,0,1-1.55-1.49,4.19,4.19,0,0,1-.55-2.17,4.28,4.28,0,0,1,.53-2.17,3.87,3.87,0,0,1,1.47-1.48,4.21,4.21,0,0,1,2.12-.54,4.16,4.16,0,0,1,2.11.53,3.73,3.73,0,0,1,1.44,1.48,4.67,4.67,0,0,1,.51,2.23v.21c0,.09,0,.16,0,.24h-7v-1.07h6.22l-.61.37a2.72,2.72,0,0,0-.32-1.41,2.44,2.44,0,0,0-.94-1,2.92,2.92,0,0,0-2.77,0,2.53,2.53,0,0,0-1,1,3.06,3.06,0,0,0-.34,1.44v.25a2.84,2.84,0,0,0,.38,1.46,2.58,2.58,0,0,0,1.07,1,3.27,3.27,0,0,0,1.56.36,3.35,3.35,0,0,0,1.33-.25,2.83,2.83,0,0,0,1.05-.74l.82,1a3.68,3.68,0,0,1-1.39,1A4.76,4.76,0,0,1,327.66,399.32Z"/><path class="cls-1" d="M333.12,399.23v-1l5.27-6.55.29.52h-5.47V391h6.67v1l-5.28,6.53-.34-.52H340v1.23Z"/><path class="cls-2" d="M383.05,380.24v-1.06l4.42-4.26a5.58,5.58,0,0,0,.88-1,2.88,2.88,0,0,0,.39-.79,2.52,2.52,0,0,0,.1-.7,1.62,1.62,0,0,0-.59-1.32,2.67,2.67,0,0,0-1.72-.48,4.14,4.14,0,0,0-1.57.28,3.2,3.2,0,0,0-1.21.9l-1.05-.92a4,4,0,0,1,1.66-1.22,6.17,6.17,0,0,1,2.31-.42,5,5,0,0,1,2,.36,2.82,2.82,0,0,1,1.29,1.05,2.77,2.77,0,0,1,.46,1.61,4.07,4.07,0,0,1-.14,1,3.74,3.74,0,0,1-.53,1.09,8.86,8.86,0,0,1-1.11,1.28l-3.94,3.8-.38-.6h6.57v1.35Z"/><path class="cls-2" d="M397,380.36a4.12,4.12,0,0,1-2.27-.65,4.37,4.37,0,0,1-1.58-1.89,8.1,8.1,0,0,1,0-6,4.37,4.37,0,0,1,1.58-1.89,4.29,4.29,0,0,1,4.54,0,4.31,4.31,0,0,1,1.58,1.89,8.23,8.23,0,0,1,0,6,4.31,4.31,0,0,1-1.58,1.89A4.12,4.12,0,0,1,397,380.36Zm0-1.38a2.49,2.49,0,0,0,1.5-.46,3,3,0,0,0,1-1.4,7.59,7.59,0,0,0,0-4.62,3,3,0,0,0-1-1.4,2.68,2.68,0,0,0-3,0,3,3,0,0,0-1,1.4,7.59,7.59,0,0,0,0,4.62,3,3,0,0,0,1,1.4A2.49,2.49,0,0,0,397,379Z"/><path class="cls-2" d="M393.31,398.85V397.8l4.42-4.27a6,6,0,0,0,.88-1,2.92,2.92,0,0,0,.39-.8,2.47,2.47,0,0,0,.1-.7,1.62,1.62,0,0,0-.59-1.32,2.67,2.67,0,0,0-1.72-.48,4,4,0,0,0-1.57.29,3.07,3.07,0,0,0-1.21.89l-1.05-.92a4,4,0,0,1,1.66-1.21,6,6,0,0,1,2.31-.43,5,5,0,0,1,2,.36,3,3,0,0,1,1.29,1,2.79,2.79,0,0,1,.46,1.61,4.07,4.07,0,0,1-.14,1A3.63,3.63,0,0,1,400,393a9.44,9.44,0,0,1-1.11,1.29l-3.94,3.8-.38-.61h6.57v1.35Z"/><path class="cls-2" d="M407.09,399a6.92,6.92,0,0,1-2.22-.35,5,5,0,0,1-1.76-1l.71-1.23a4.19,4.19,0,0,0,1.41.84,5.2,5.2,0,0,0,1.86.32,3,3,0,0,0,1.89-.52,1.79,1.79,0,0,0,0-2.77,3.22,3.22,0,0,0-2-.52h-.87v-1.09l3.22-4,.22.62H403.6V388h7.17v1.06L407.56,393l-.81-.48h.51a4.33,4.33,0,0,1,3,.89,2.9,2.9,0,0,1,1,2.24,3.23,3.23,0,0,1-.45,1.68,3,3,0,0,1-1.36,1.2A5.16,5.16,0,0,1,407.09,399Z"/><path class="cls-1" d="M453.64,380.63V369.78h4.57a6.51,6.51,0,0,1,3.06.68,5,5,0,0,1,2.07,1.91,5.87,5.87,0,0,1,0,5.67,5,5,0,0,1-2.07,1.91,6.51,6.51,0,0,1-3.06.68Zm1.55-1.35h2.93a5,5,0,0,0,2.33-.51,3.71,3.71,0,0,0,1.53-1.43,4.51,4.51,0,0,0,0-4.28,3.69,3.69,0,0,0-1.53-1.42,5,5,0,0,0-2.33-.51h-2.93Z"/><path class="cls-1" d="M467.47,370.83a1,1,0,0,1-.72-.28.91.91,0,0,1-.29-.68,1,1,0,0,1,.29-.7,1.08,1.08,0,0,1,1.44,0,.91.91,0,0,1,.29.68,1,1,0,0,1-1,1Zm-.74,9.8v-8.22h1.48v8.22Z"/><path class="cls-1" d="M473.91,380.73a6.91,6.91,0,0,1-2-.28,4.56,4.56,0,0,1-1.45-.69l.62-1.17a5.24,5.24,0,0,0,1.3.6,5.08,5.08,0,0,0,1.59.25,2.79,2.79,0,0,0,1.49-.3.91.91,0,0,0,.46-.82.7.7,0,0,0-.28-.6,1.81,1.81,0,0,0-.74-.33c-.3-.07-.64-.14-1-.19s-.75-.13-1.12-.22a4.56,4.56,0,0,1-1-.37,1.94,1.94,0,0,1-.75-.67,2.33,2.33,0,0,1,.14-2.44,2.68,2.68,0,0,1,1.19-.86,5,5,0,0,1,1.82-.3,7.19,7.19,0,0,1,1.64.19,4,4,0,0,1,1.35.55l-.63,1.18a3.4,3.4,0,0,0-1.16-.51,5.05,5.05,0,0,0-1.21-.14,2.59,2.59,0,0,0-1.46.32.94.94,0,0,0-.48.81.76.76,0,0,0,.28.64,2.09,2.09,0,0,0,.75.35c.3.08.64.15,1,.21s.75.13,1.12.22a5.11,5.11,0,0,1,1,.36,2.11,2.11,0,0,1,.74.65,2.2,2.2,0,0,1-.15,2.41,2.77,2.77,0,0,1-1.22.84A5.13,5.13,0,0,1,473.91,380.73Z"/><path class="cls-1" d="M483.48,380.73a4.68,4.68,0,0,1-2.32-.55,3.78,3.78,0,0,1-1.55-1.49,4.19,4.19,0,0,1-.55-2.17,4.31,4.31,0,0,1,.53-2.17,3.94,3.94,0,0,1,1.47-1.48,4.2,4.2,0,0,1,2.12-.53,4.15,4.15,0,0,1,2.11.52,3.8,3.8,0,0,1,1.44,1.48,4.68,4.68,0,0,1,.52,2.23c0,.06,0,.13,0,.22l0,.23h-7V376h6.22l-.61.37a2.72,2.72,0,0,0-.32-1.41,2.51,2.51,0,0,0-.94-1,2.92,2.92,0,0,0-2.77,0,2.4,2.4,0,0,0-.94,1,2.91,2.91,0,0,0-.35,1.43v.25a2.87,2.87,0,0,0,.38,1.47,2.65,2.65,0,0,0,1.07,1,3.38,3.38,0,0,0,1.56.35,3.54,3.54,0,0,0,1.33-.24,3,3,0,0,0,1-.75l.82,1a3.48,3.48,0,0,1-1.39,1A4.77,4.77,0,0,1,483.48,380.73Z"/><path class="cls-1" d="M494.19,372.34a3.86,3.86,0,0,1,1.78.38,2.79,2.79,0,0,1,1.2,1.18,4.14,4.14,0,0,1,.44,2v4.73h-1.49v-4.56a2.56,2.56,0,0,0-.58-1.8,2.19,2.19,0,0,0-1.64-.6,2.87,2.87,0,0,0-1.38.31,2.16,2.16,0,0,0-.91.91,3.27,3.27,0,0,0-.32,1.51v4.23H489.8v-8.22h1.43v2.22L491,374a2.85,2.85,0,0,1,1.24-1.26A4.18,4.18,0,0,1,494.19,372.34Zm.61-1.17a1.4,1.4,0,0,1-.66-.15,3.25,3.25,0,0,1-.52-.37,3.55,3.55,0,0,0-.45-.36.7.7,0,0,0-.43-.16.68.68,0,0,0-.55.26,1.19,1.19,0,0,0-.24.7h-.84a2.34,2.34,0,0,1,.43-1.38,1.32,1.32,0,0,1,1.09-.51,1.3,1.3,0,0,1,.66.17,2.28,2.28,0,0,1,.53.37c.16.14.3.26.44.36a.7.7,0,0,0,.43.16.73.73,0,0,0,.56-.25,1.09,1.09,0,0,0,.23-.68h.84a2.1,2.1,0,0,1-.43,1.33A1.33,1.33,0,0,1,494.8,371.17Z"/><path class="cls-1" d="M504.38,380.73a4.33,4.33,0,0,1-2.2-.55,4,4,0,0,1-1.52-1.49,4.48,4.48,0,0,1,0-4.34,4,4,0,0,1,1.52-1.48,4.83,4.83,0,0,1,4.4,0,4,4,0,0,1,1.52,1.47,4.58,4.58,0,0,1,0,4.35,3.89,3.89,0,0,1-1.52,1.49A4.36,4.36,0,0,1,504.38,380.73Zm0-1.31a2.9,2.9,0,0,0,1.42-.35,2.56,2.56,0,0,0,1-1,3.14,3.14,0,0,0,.36-1.53,3,3,0,0,0-.36-1.52,2.6,2.6,0,0,0-1-1,3,3,0,0,0-2.83,0,2.74,2.74,0,0,0-1,1,2.93,2.93,0,0,0-.37,1.52,3,3,0,0,0,.37,1.53,2.7,2.7,0,0,0,1,1A2.89,2.89,0,0,0,504.38,379.42Z"/><path class="cls-1" d="M521,380.76a6.46,6.46,0,0,1-2.32-.41,5.62,5.62,0,0,1-1.83-1.17,5.73,5.73,0,0,1-1.21-6.19,5.3,5.3,0,0,1,1.22-1.76,5.51,5.51,0,0,1,1.84-1.17,6.8,6.8,0,0,1,4.68,0,4.66,4.66,0,0,1,1.82,1.26l-1,1a4.41,4.41,0,0,0-1.45-1,4.75,4.75,0,0,0-1.7-.3,4.88,4.88,0,0,0-1.73.31,4.26,4.26,0,0,0-1.38.87,3.82,3.82,0,0,0-.9,1.33,4.47,4.47,0,0,0,0,3.32,3.91,3.91,0,0,0,.9,1.33,4.08,4.08,0,0,0,1.37.88,4.82,4.82,0,0,0,1.72.31,5.17,5.17,0,0,0,1.67-.27,4.27,4.27,0,0,0,1.48-.91l.89,1.18a5.58,5.58,0,0,1-1.89,1A7.26,7.26,0,0,1,521,380.76Zm2.62-1.58v-4h1.49v4.24Z"/><path class="cls-1" d="M528.35,380.63v-8.22h1.42v2.24l-.14-.56a2.54,2.54,0,0,1,1.15-1.31,4.15,4.15,0,0,1,2-.44v1.44l-.18,0h-.16a2.53,2.53,0,0,0-1.9.72,2.83,2.83,0,0,0-.69,2.06v4.09Z"/><path class="cls-1" d="M536.89,380.73a4,4,0,0,1-1.6-.31,2.48,2.48,0,0,1-1.06-.86,2.19,2.19,0,0,1-.38-1.25,2.35,2.35,0,0,1,.32-1.21,2.17,2.17,0,0,1,1-.87,4.76,4.76,0,0,1,1.95-.33h2.6V377h-2.54a2.28,2.28,0,0,0-1.51.37,1.23,1.23,0,0,0-.38.9,1.15,1.15,0,0,0,.48,1,2.1,2.1,0,0,0,1.33.37,2.92,2.92,0,0,0,1.47-.37,2.07,2.07,0,0,0,.9-1.09l.3,1a2.29,2.29,0,0,1-1,1.16A3.79,3.79,0,0,1,536.89,380.73Zm2.7-.1V378.9l-.08-.33v-3a1.92,1.92,0,0,0-.55-1.47,2.33,2.33,0,0,0-1.65-.52,4.32,4.32,0,0,0-1.42.24,3.61,3.61,0,0,0-1.18.65l-.62-1.12a4.46,4.46,0,0,1,1.52-.78,6.46,6.46,0,0,1,1.87-.27,3.77,3.77,0,0,1,2.61.82,3.2,3.2,0,0,1,.91,2.51v5Zm-3.16-9.41,2.11-2h1.89l-2.61,2Z"/><path class="cls-1" d="M543.08,373.64v-1.23h5.24v1.23Zm1.4,7v-8.95a2.65,2.65,0,0,1,.7-1.93,2.69,2.69,0,0,1,2-.72,3.46,3.46,0,0,1,.92.12,2.14,2.14,0,0,1,.76.36l-.45,1.13a1.92,1.92,0,0,0-.53-.28,1.83,1.83,0,0,0-.62-.1,1.29,1.29,0,0,0-1,.36,1.51,1.51,0,0,0-.34,1.08v1.1l0,.68v7.15Zm6-9.8a1,1,0,0,1-.72-.28.91.91,0,0,1-.29-.68,1,1,0,0,1,.29-.7,1.08,1.08,0,0,1,1.44,0,.91.91,0,0,1,.29.68,1,1,0,0,1-1,1Zm-.74,9.8v-8.22h1.48v8.22Z"/><path class="cls-1" d="M558.14,380.73a4.48,4.48,0,0,1-2.24-.55,3.87,3.87,0,0,1-1.54-1.49,4.48,4.48,0,0,1,0-4.34,3.92,3.92,0,0,1,1.54-1.48,4.58,4.58,0,0,1,2.24-.53,4.33,4.33,0,0,1,2,.44,3.1,3.1,0,0,1,1.35,1.31l-1.13.73a2.51,2.51,0,0,0-1-.89,2.7,2.7,0,0,0-1.25-.29,3,3,0,0,0-1.45.35,2.62,2.62,0,0,0-1,1,2.93,2.93,0,0,0-.38,1.52,3.06,3.06,0,0,0,.38,1.54,2.62,2.62,0,0,0,1,1,3,3,0,0,0,1.45.35,2.82,2.82,0,0,0,1.25-.28,2.54,2.54,0,0,0,1-.9l1.13.72a3.28,3.28,0,0,1-1.35,1.31A4.33,4.33,0,0,1,558.14,380.73Z"/><path class="cls-1" d="M567.31,380.73a4.3,4.3,0,0,1-2.2-.55,4,4,0,0,1-1.52-1.49,4.48,4.48,0,0,1,0-4.34,4,4,0,0,1,1.52-1.48,4.81,4.81,0,0,1,4.39,0,3.91,3.91,0,0,1,1.52,1.47,4.58,4.58,0,0,1,0,4.35,3.82,3.82,0,0,1-1.52,1.49A4.29,4.29,0,0,1,567.31,380.73Zm0-1.31a2.9,2.9,0,0,0,1.42-.35,2.47,2.47,0,0,0,1-1,3.14,3.14,0,0,0,.36-1.53,3,3,0,0,0-.36-1.52,2.51,2.51,0,0,0-1-1,2.9,2.9,0,0,0-1.42-.35,2.83,2.83,0,0,0-1.41.35,2.69,2.69,0,0,0-1,1,3,3,0,0,0-.37,1.52,3.15,3.15,0,0,0,.37,1.53,2.65,2.65,0,0,0,1,1A2.83,2.83,0,0,0,567.31,379.42Z"/><path class="cls-1" d="M483.35,399.34a4.82,4.82,0,0,1-2.32-.54,4,4,0,0,1-1.55-1.49,4.61,4.61,0,0,1,0-4.35,3.87,3.87,0,0,1,1.47-1.48,4.28,4.28,0,0,1,2.12-.53,4.18,4.18,0,0,1,2.11.52A3.73,3.73,0,0,1,486.6,393a4.5,4.5,0,0,1,.52,2.22,1.77,1.77,0,0,1,0,.22,1.64,1.64,0,0,1,0,.23h-7v-1.07h6.22l-.61.37a2.77,2.77,0,0,0-.33-1.41,2.55,2.55,0,0,0-.93-1,2.92,2.92,0,0,0-2.77,0,2.49,2.49,0,0,0-.95,1,2.93,2.93,0,0,0-.34,1.43v.25a2.87,2.87,0,0,0,.38,1.47,2.62,2.62,0,0,0,1.06,1,3.33,3.33,0,0,0,1.57.36,3.54,3.54,0,0,0,1.33-.25,3,3,0,0,0,1-.75l.82,1a3.56,3.56,0,0,1-1.38,1A4.82,4.82,0,0,1,483.35,399.34Z"/><path class="cls-1" d="M494.57,399.25V388.39h1.55v10.86Z"/><path class="cls-1" d="M504,391a3.86,3.86,0,0,1,1.78.39,2.76,2.76,0,0,1,1.2,1.17,4.15,4.15,0,0,1,.44,2v4.73H506v-4.56a2.48,2.48,0,0,0-.59-1.8,2.12,2.12,0,0,0-1.63-.61,2.87,2.87,0,0,0-1.38.31,2.13,2.13,0,0,0-.91.92,3.2,3.2,0,0,0-.32,1.5v4.24h-1.49V391h1.43v2.21l-.23-.59a2.88,2.88,0,0,1,1.24-1.25A4.07,4.07,0,0,1,504,391Z"/><path class="cls-1" d="M514.11,399.34a4.26,4.26,0,0,1-2.13-.53,3.8,3.8,0,0,1-1.48-1.47,4.68,4.68,0,0,1,0-4.4,3.94,3.94,0,0,1,1.48-1.47,4.25,4.25,0,0,1,2.13-.52,3.82,3.82,0,0,1,1.88.46,3.49,3.49,0,0,1,1.34,1.4,5.71,5.71,0,0,1,0,4.65,3.34,3.34,0,0,1-1.32,1.41A3.89,3.89,0,0,1,514.11,399.34Zm.12-1.3a2.79,2.79,0,0,0,1.41-.36,2.56,2.56,0,0,0,1-1,3.13,3.13,0,0,0,.36-1.52,3.09,3.09,0,0,0-.36-1.53,2.57,2.57,0,0,0-1-1,2.94,2.94,0,0,0-2.82,0,2.71,2.71,0,0,0-1,1,3,3,0,0,0-.37,1.53,3,3,0,0,0,.37,1.52,2.7,2.7,0,0,0,1,1A2.79,2.79,0,0,0,514.23,398Zm2.81,1.21V397l.09-1.91-.15-1.91v-5.47h1.49v11.51Z"/><path class="cls-1" d="M525.25,399.34a4.18,4.18,0,0,1-1.86-.39,2.79,2.79,0,0,1-1.24-1.19,4.14,4.14,0,0,1-.44-2V391h1.49v4.56a2.51,2.51,0,0,0,.58,1.81,2.18,2.18,0,0,0,1.64.6,2.8,2.8,0,0,0,1.35-.31,2.26,2.26,0,0,0,.88-.93,3.25,3.25,0,0,0,.31-1.49V391h1.49v8.22H528V397l.23.59a2.86,2.86,0,0,1-1.21,1.27A3.65,3.65,0,0,1,525.25,399.34Z"/><path class="cls-1" d="M535.14,399.34a6.62,6.62,0,0,1-1.95-.28,4.78,4.78,0,0,1-1.45-.68l.62-1.18a5.59,5.59,0,0,0,2.89.85,3,3,0,0,0,1.5-.29.94.94,0,0,0,.45-.83.71.71,0,0,0-.28-.6,1.9,1.9,0,0,0-.73-.33c-.31-.07-.65-.13-1-.19s-.74-.13-1.11-.22a4.47,4.47,0,0,1-1-.37,1.84,1.84,0,0,1-.74-.67,2,2,0,0,1-.28-1.14,2.11,2.11,0,0,1,.42-1.3,2.65,2.65,0,0,1,1.18-.86,5,5,0,0,1,1.83-.3,7.1,7.1,0,0,1,1.63.19,4.07,4.07,0,0,1,1.36.55l-.64,1.18a3.4,3.4,0,0,0-1.16-.51,5.55,5.55,0,0,0-1.21-.14,2.7,2.7,0,0,0-1.46.32.94.94,0,0,0-.48.81.79.79,0,0,0,.29.65,2,2,0,0,0,.74.34,7.05,7.05,0,0,0,1,.21c.37.06.74.13,1.12.22a4.31,4.31,0,0,1,1,.37,1.78,1.78,0,0,1,1,1.76,2,2,0,0,1-.43,1.29A2.91,2.91,0,0,1,537,399,5.32,5.32,0,0,1,535.14,399.34Z"/><path class="cls-1" d="M539.87,392.25V391h5.24v1.22Zm4,7.09a2.61,2.61,0,0,1-1.92-.67,2.52,2.52,0,0,1-.68-1.91v-7.53h1.49v7.47a1.47,1.47,0,0,0,.33,1,1.26,1.26,0,0,0,.95.35,1.76,1.76,0,0,0,1.17-.39l.46,1.07a2.13,2.13,0,0,1-.81.44A3.64,3.64,0,0,1,543.87,399.34Z"/><path class="cls-1" d="M548,399.25V391h1.42v2.23l-.13-.56a2.46,2.46,0,0,1,1.14-1.3,4,4,0,0,1,2-.45v1.44l-.18,0h-.16a2.53,2.53,0,0,0-1.9.72,2.83,2.83,0,0,0-.69,2.06v4.1Z"/><path class="cls-1" d="M555.46,389.44a1,1,0,0,1-.72-.28.91.91,0,0,1-.29-.68,1,1,0,0,1,.29-.7,1,1,0,0,1,.72-.28,1,1,0,0,1,.72.28.88.88,0,0,1,.29.67,1,1,0,0,1-.28.71A1,1,0,0,1,555.46,389.44Zm-.75,9.81V391h1.49v8.22Z"/><path class="cls-1" d="M561.94,399.34a3.81,3.81,0,0,1-1.6-.31,2.57,2.57,0,0,1-1.07-.86,2.26,2.26,0,0,1-.37-1.25,2.35,2.35,0,0,1,.32-1.21,2.23,2.23,0,0,1,1-.87,4.77,4.77,0,0,1,2-.32h2.6v1.07h-2.54a2.22,2.22,0,0,0-1.51.37,1.23,1.23,0,0,0-.38.9,1.17,1.17,0,0,0,.48,1,2.17,2.17,0,0,0,1.33.36,2.82,2.82,0,0,0,1.47-.37,2.12,2.12,0,0,0,.9-1.09l.3,1a2.31,2.31,0,0,1-1,1.15A3.68,3.68,0,0,1,561.94,399.34Zm2.7-.09v-1.74l-.08-.33v-3a1.92,1.92,0,0,0-.55-1.47,2.33,2.33,0,0,0-1.65-.52,4.44,4.44,0,0,0-1.43.25,3.65,3.65,0,0,0-1.17.64l-.62-1.12a4.46,4.46,0,0,1,1.52-.78,6.46,6.46,0,0,1,1.87-.27,3.77,3.77,0,0,1,2.61.82,3.21,3.21,0,0,1,.91,2.51v5Z"/><path class="cls-1" d="M569.31,399.25V387.74h1.49v11.51Z"/><path class="cls-1" d="M269.82,326.64V289.29H286a20.93,20.93,0,0,1,8.65,1.63,12.72,12.72,0,0,1,5.6,4.66,13.1,13.1,0,0,1,2,7.26,12.94,12.94,0,0,1-2,7.2,12.67,12.67,0,0,1-5.6,4.67,20.93,20.93,0,0,1-8.65,1.63H274.62l3.84-3.89v14.19Zm8.64-13.23-3.84-4.11H285.5q4,0,6-1.71a6,6,0,0,0,2-4.75,6,6,0,0,0-2-4.8q-2-1.71-6-1.71H274.62l3.84-4.11Z"/><path class="cls-1" d="M328.72,327.28a22.74,22.74,0,0,1-8.19-1.44,19.24,19.24,0,0,1-6.51-4.06,18.65,18.65,0,0,1-4.27-6.13,20.19,20.19,0,0,1,0-15.37,18.48,18.48,0,0,1,4.3-6.14,19.77,19.77,0,0,1,6.51-4.05,23.61,23.61,0,0,1,16.24,0,19.45,19.45,0,0,1,6.46,4.05,19,19,0,0,1,4.29,6.11A18.7,18.7,0,0,1,349.1,308a18.9,18.9,0,0,1-1.55,7.71,18.48,18.48,0,0,1-4.29,6.14,19.72,19.72,0,0,1-6.46,4A22.1,22.1,0,0,1,328.72,327.28Zm-.05-7.36a12.13,12.13,0,0,0,4.61-.86,11.08,11.08,0,0,0,6.19-6.24,13.83,13.83,0,0,0,0-9.71,11.46,11.46,0,0,0-2.45-3.79,10.72,10.72,0,0,0-3.71-2.45,12.36,12.36,0,0,0-4.64-.86,12.18,12.18,0,0,0-4.62.86,11.11,11.11,0,0,0-3.71,2.45,11.38,11.38,0,0,0-2.48,3.79,13.75,13.75,0,0,0,0,9.68,11.42,11.42,0,0,0,2.46,3.82,10.77,10.77,0,0,0,3.71,2.45A12.32,12.32,0,0,0,328.67,319.92Z"/><path class="cls-1" d="M357.32,326.64V289.29h16.17a20.91,20.91,0,0,1,8.64,1.63,12.61,12.61,0,0,1,5.6,4.66,13,13,0,0,1,2,7.26,12.78,12.78,0,0,1-2,7.18,12.45,12.45,0,0,1-5.6,4.61,21.25,21.25,0,0,1-8.64,1.6H362.12l3.84-3.78v14.19ZM366,313.41l-3.84-4.06H373c2.66,0,4.66-.58,6-1.73a6.78,6.78,0,0,0,0-9.58c-1.31-1.14-3.31-1.71-6-1.71H362.12l3.84-4.11Zm15.1,13.23-9.33-13.55H381l9.44,13.55Z"/><path class="cls-1" d="M406.89,326.64h-8.65V289.29h28.23v6.94H406.89Zm-.64-20.54h17.92V313H406.25Z"/><path class="cls-1" d="M451.81,327.28a22.74,22.74,0,0,1-8.19-1.44,19.24,19.24,0,0,1-6.51-4.06,18.65,18.65,0,0,1-4.27-6.13,20.19,20.19,0,0,1,0-15.37,18.48,18.48,0,0,1,4.3-6.14,19.77,19.77,0,0,1,6.51-4.05,23.64,23.64,0,0,1,16.25,0,19.5,19.5,0,0,1,6.45,4.05,19.17,19.17,0,0,1,4.3,6.11,18.86,18.86,0,0,1,1.54,7.71,19.06,19.06,0,0,1-1.54,7.71,18.66,18.66,0,0,1-4.3,6.14,19.78,19.78,0,0,1-6.45,4A22.2,22.2,0,0,1,451.81,327.28Zm-.05-7.36a12.13,12.13,0,0,0,4.61-.86,11.08,11.08,0,0,0,6.19-6.24,13.83,13.83,0,0,0,0-9.71,11.31,11.31,0,0,0-2.45-3.79,10.72,10.72,0,0,0-3.71-2.45,12.36,12.36,0,0,0-4.64-.86,12.22,12.22,0,0,0-4.62.86,11.11,11.11,0,0,0-3.71,2.45,11.38,11.38,0,0,0-2.48,3.79,13.75,13.75,0,0,0,0,9.68,11.42,11.42,0,0,0,2.46,3.82,10.77,10.77,0,0,0,3.71,2.45A12.36,12.36,0,0,0,451.76,319.92Z"/><path class="cls-1" d="M480.41,326.64V289.29h8.64V319.6h18.73v7Z"/><path class="cls-1" d="M514.34,326.64V289.29H523v37.35Z"/><path class="cls-1" d="M551.69,327.28a22.74,22.74,0,0,1-8.19-1.44,19.24,19.24,0,0,1-6.51-4.06,18.65,18.65,0,0,1-4.27-6.13,20.19,20.19,0,0,1,0-15.37,18.48,18.48,0,0,1,4.3-6.14,19.77,19.77,0,0,1,6.51-4.05,23.64,23.64,0,0,1,16.25,0,19.5,19.5,0,0,1,6.45,4.05,19.17,19.17,0,0,1,4.3,6.11,18.86,18.86,0,0,1,1.54,7.71,19.06,19.06,0,0,1-1.54,7.71,18.66,18.66,0,0,1-4.3,6.14,19.78,19.78,0,0,1-6.45,4A22.2,22.2,0,0,1,551.69,327.28Zm-.05-7.36a12.13,12.13,0,0,0,4.61-.86,11.08,11.08,0,0,0,6.19-6.24,13.83,13.83,0,0,0,0-9.71,11.31,11.31,0,0,0-2.45-3.79,10.72,10.72,0,0,0-3.71-2.45,12.36,12.36,0,0,0-4.64-.86,12.22,12.22,0,0,0-4.62.86,11,11,0,0,0-3.7,2.45,11.25,11.25,0,0,0-2.49,3.79,13.75,13.75,0,0,0,0,9.68,11.42,11.42,0,0,0,2.46,3.82,10.77,10.77,0,0,0,3.71,2.45A12.36,12.36,0,0,0,551.64,319.92Z"/></g></svg>