<?xml version="1.0" encoding="utf-8"?>
<!-- Generator: Adobe Illustrator 25.3.0, SVG Export Plug-In . SVG Version: 6.00 Build 0)  -->
<svg version="1.1" id="Capa_1" xmlns="http://www.w3.org/2000/svg" xmlns:xlink="http://www.w3.org/1999/xlink" x="0px" y="0px"
	 viewBox="0 0 420.94 420.94" style="enable-background:new 0 0 420.94 420.94;" xml:space="preserve">
<style type="text/css">
	.st0{fill:#CBC2DE;}
	.st1{fill:none;stroke:#F2F2F2;stroke-width:14.1614;stroke-miterlimit:10;}
	.st2{fill:none;stroke:#F2F2F2;stroke-width:12.2829;stroke-linecap:round;stroke-linejoin:round;stroke-miterlimit:10;}
	.st3{fill:#E5EFEE;}
	.st4{fill:#E4EEEE;}
	.st5{fill:#E6EFEE;}
	.st6{fill:#E7F0EF;}
	.st7{fill:#DEEBEB;}
	.st8{fill:none;stroke:#F2F2F2;stroke-width:13.0789;stroke-miterlimit:10;}
	.st9{fill:#F2F2F2;}
	.st10{fill:none;stroke:#F2F2F2;stroke-width:13.0789;stroke-linecap:round;stroke-miterlimit:10;}
	.st11{fill:none;stroke:#F2F2F2;stroke-width:13.4939;stroke-miterlimit:10;}
	.st12{fill:none;stroke:#F2F2F2;stroke-width:6.6361;stroke-linecap:round;stroke-miterlimit:10;}
</style>
<g>
	<g>
		<path class="st0" d="M417.39,210.57c-0.29,56.86-20.21,106.04-60.29,146.11c-41.2,41.19-91.62,61.26-150.22,60.71
			C96.58,416.34,3.53,324.73,3.54,210.33C3.56,96.93,96.83,2.81,212.1,3.56C324.45,4.29,418.33,96.91,417.39,210.57z"/>
	</g>
	<g>
		<path class="st11" d="M269.28,302.87H153.45c-13.61,0-24.64-11.03-24.64-24.64V142.68c0-13.61,11.03-24.64,24.64-24.64h115.83
			c13.61,0,24.64,11.03,24.64,24.64v135.55C293.93,291.84,282.89,302.87,269.28,302.87z"/>
		<path class="st11" d="M294.54,190.12h13.17c5.32,0,9.63,4.31,9.63,9.63v23.26c0,5.32-4.31,9.63-9.63,9.63h-13.17"/>
		<path class="st11" d="M268.98,118.04L268.98,118.04c-6.65-0.7-11.71-6.31-11.71-13V90c0-12.08-9.79-21.87-21.87-21.87h-24.95h1.85
			h-24.95c-12.08,0-21.87,9.79-21.87,21.87v15.03c0,6.69-5.05,12.3-11.71,13h0"/>
		<path class="st11" d="M268.98,302.91L268.98,302.91c-6.65,0.7-11.71,6.31-11.71,13v15.03c0,12.08-9.79,21.87-21.87,21.87h-24.95
			h1.85h-24.95c-12.08,0-21.87-9.79-21.87-21.87v-15.03c0-6.69-5.05-12.3-11.71-13h0"/>
		<line class="st12" x1="153.66" y1="210.66" x2="197.81" y2="166.5"/>
		<line class="st12" x1="206.44" y1="157.47" x2="208.9" y2="155.21"/>
		<line class="st12" x1="215.89" y1="147.81" x2="225.13" y2="139.19"/>
		<line class="st12" x1="151.4" y1="188.27" x2="165.37" y2="174.51"/>
		<line class="st12" x1="171.32" y1="168.76" x2="176.04" y2="164.24"/>
		<line class="st12" x1="182.62" y1="157.67" x2="199.46" y2="140.01"/>
		<line class="st12" x1="152.63" y1="162.4" x2="174.2" y2="141.04"/>
	</g>
</g>
</svg>
